# xmcd CD database file
#
# Track frame offsets:
#	150
#	9788
#	19092
#	29204
#	41768
#	54959
#	65795
#	77857
#	90309
#	99933
#	109529
#	121048
#	133110
#	144406
#	155075
#	167332
#	178433
#	190927
#	202112
#	213492
#	225708
#	238481
#	252452
#	263943
#	275392
#	287858
#	297886
#	310004
#
# Disc length: 4327 seconds
#
# Revision: 0
# Processed by: cddbd v1.4b41PL1 Copyright (c) Steve Scherf et al.
# Submitted via: Feurio! 1.61 - http://www.feurio.com
#
DISCID=9d10e51c
DTITLE=Sam Cooke - The man and his music
DYEAR=1900
DGENRE=
TTITLE0=Touch the hem of his Garment
TTITLE1=That's heaven to me
TTITLE2=I'll come running back to you
TTITLE3=You send me
TTITLE4=Win your love for me
TTITLE5=Just for you
TTITLE6=Chain gang
TTITLE7=When a boy falls in love
TTITLE8=Only sixteen
TTITLE9=Wonderful world
TTITLE10=Cupid
TTITLE11=Nothing can change this love
TTITLE12=Rome wasn't built in a day
TTITLE13=Love will find a way
TTITLE14=Everybody loves to cha cha cha
TTITLE15=Another saturday night
TTITLE16=Meet me at mary´s place
TTITLE17=Having a party
TTITLE18=Good times
TTITLE19=Twistin' the night away
TTITLE20=Shake
TTITLE21=Somebody have mercy
TTITLE22=Sad mood
TTITLE23=Ain't that good news
TTITLE24=Bring it on home to me
TTITLE25=Soothe me
TTITLE26=That's where it's at
TTITLE27=A Change is gonna come
EXTD=Kommentar: The man and his music
EXTT0=Kommentar: Touch the hem of his garment
EXTT1=Kommentar: That's heaven to me
EXTT2=Kommentar: I'll come running back to you
EXTT3=Kommentar: You send me
EXTT4=Kommentar: Win your love for me
EXTT5=Kommentar: Just for you
EXTT6=Kommentar: Chain gang
EXTT7=Kommentar: When a boy falls in love
EXTT8=Kommentar: Only sixteen
EXTT9=Kommentar: Wonderful world
EXTT10=Kommentar: Cupid
EXTT11=Kommentar: Nothing can change this love
EXTT12=Kommentar: Rome wasn't built in a day
EXTT13=Kommentar: Love will find a way
EXTT14=Kommentar: Everybody loves to cha cha cha
EXTT15=Kommentar: Another saturday night
EXTT16=Kommentar: Meet me at mary´s place
EXTT17=Kommentar: Having a party
EXTT18=Kommentar: Good times
EXTT19=Kommentar: Twistin' the night away
EXTT20=Kommentar: Shake
EXTT21=Kommentar: Somebody have mercy
EXTT22=Kommentar: Sad mood
EXTT23=Kommentar: Ain't that good news
EXTT24=Kommentar: Bring it on home to me
EXTT25=Kommentar: Soothe me
EXTT26=Kommentar: That's where it's at
EXTT27=Kommentar: A Change is gonna come
PLAYORDER=
